<svg width="37" height="37" viewBox="0 0 37 37" fill="none" xmlns="http://www.w3.org/2000/svg">
<path d="M15.1667 22.7373L16.1667 22.7373C16.1667 22.4721 16.0613 22.2177 15.8738 22.0302C15.6862 21.8426 15.4319 21.7373 15.1667 21.7373L15.1667 22.7373ZM15.1667 28.8005L14.1667 28.8005L15.1667 28.8005ZM19.7167 33.3479L19.7167 34.3479C20.1118 34.3479 20.4699 34.1153 20.6304 33.7542L19.7167 33.3479ZM25.7833 19.7057L26.6971 20.112C26.7539 19.9841 26.7833 19.8456 26.7833 19.7057L25.7833 19.7057ZM25.7833 3.03181L26.7833 3.03181C26.7833 2.47953 26.3356 2.03181 25.7833 2.03181L25.7833 3.03181ZM8.67534 3.03181L8.66404 4.03181L8.67534 4.03181L8.67534 3.03181ZM5.642 5.60868L6.63044 5.76033L6.63069 5.7587L5.642 5.60868ZM3.54901 19.2509L2.56057 19.0993L2.56034 19.1008L3.54901 19.2509ZM6.58234 22.7373L6.58234 21.7372L6.57102 21.7373L6.58234 22.7373ZM25.7833 3.03181L25.7833 2.03181C25.2311 2.03181 24.7833 2.47952 24.7833 3.03181L25.7833 3.03181ZM25.7833 19.7057L24.7833 19.7057C24.7833 20.2579 25.2311 20.7057 25.7833 20.7057L25.7833 19.7057ZM14.1667 22.7373L14.1667 28.8005L16.1667 28.8005L16.1667 22.7373L14.1667 22.7373ZM14.1667 28.8005C14.1667 31.8648 16.652 34.3479 19.7167 34.3479L19.7167 32.3479C17.7555 32.3479 16.1667 30.7591 16.1667 28.8005L14.1667 28.8005ZM20.6304 33.7542L26.6971 20.112L24.8696 19.2993L18.8029 32.9416L20.6304 33.7542ZM26.7833 19.7057L26.7833 3.03181L24.7833 3.03181L24.7833 19.7057L26.7833 19.7057ZM25.7833 2.03181L8.67534 2.03181L8.67534 4.03181L25.7833 4.03181L25.7833 2.03181ZM8.68664 2.03188C6.6759 2.00916 4.95499 3.47054 4.65332 5.45866L6.63069 5.7587C6.78262 4.75742 7.64967 4.02029 8.66404 4.03175L8.68664 2.03188ZM4.65357 5.45703L2.56057 19.0993L4.53744 19.4026L6.63044 5.76033L4.65357 5.45703ZM2.56034 19.1008C2.38271 20.2704 2.72801 21.459 3.5046 22.3515L5.01344 21.0387C4.62208 20.5889 4.4482 19.9902 4.53767 19.4011L2.56034 19.1008ZM3.5046 22.3515C4.28116 23.2441 5.41058 23.7506 6.59366 23.7372L6.57102 21.7373C5.97428 21.7441 5.40483 21.4886 5.01344 21.0387L3.5046 22.3515ZM6.58234 23.7373L15.1667 23.7373L15.1667 21.7373L6.58234 21.7373L6.58234 23.7373ZM25.7833 4.03181L30.3333 4.03181L30.3333 2.03181L25.7833 2.03181L25.7833 4.03181ZM30.3333 4.03181C31.4569 4.03181 32.3667 4.94193 32.3667 6.06342L34.3667 6.06342C34.3667 3.83628 32.5604 2.03181 30.3333 2.03181L30.3333 4.03181ZM32.3667 6.06342L32.3667 16.674L34.3667 16.674L34.3667 6.06342L32.3667 6.06342ZM32.3667 16.674C32.3667 17.7955 31.4569 18.7057 30.3333 18.7057L30.3333 20.7057C32.5604 20.7057 34.3667 18.9012 34.3667 16.674L32.3667 16.674ZM30.3333 18.7057L25.7833 18.7057L25.7833 20.7057L30.3333 20.7057L30.3333 18.7057ZM26.7833 19.7057L26.7833 3.03181L24.7833 3.03181L24.7833 19.7057L26.7833 19.7057Z" fill="#018DB3"/>
</svg>
