<svg width="35" height="35" viewBox="0 0 35 35" fill="none" xmlns="http://www.w3.org/2000/svg">
<path d="M20.4167 13.1251H19.1667C19.1667 13.8154 19.7263 14.3751 20.4167 14.3751V13.1251ZM20.4167 7.29175L21.6667 7.29175L20.4167 7.29175ZM16.0417 2.91675V1.66675C15.5477 1.66675 15.1 1.95766 14.8994 2.40907L16.0417 2.91675ZM10.2083 16.0417L9.06607 15.5341C8.99503 15.6939 8.95833 15.8669 8.95833 16.0417H10.2083ZM10.2083 32.0834H8.95833C8.95833 32.7738 9.51797 33.3334 10.2083 33.3334V32.0834ZM26.6583 32.0834L26.6725 30.8334H26.6583V32.0834ZM29.575 29.6042L28.3394 29.4148L28.3391 29.4168L29.575 29.6042ZM31.5875 16.4792L32.8231 16.6687L32.8233 16.6668L31.5875 16.4792ZM28.6708 13.1251V14.3751C28.6755 14.3751 28.6803 14.3751 28.685 14.375L28.6708 13.1251ZM10.2083 32.0834V33.3334C10.8987 33.3334 11.4583 32.7738 11.4583 32.0834H10.2083ZM10.2083 16.0417H11.4583C11.4583 15.3514 10.8987 14.7917 10.2083 14.7917V16.0417ZM21.6667 13.1251V7.29175H19.1667V13.1251H21.6667ZM21.6667 7.29175C21.6667 4.18515 19.1483 1.66675 16.0417 1.66675V4.16675C17.7676 4.16675 19.1667 5.56586 19.1667 7.29175L21.6667 7.29175ZM14.8994 2.40907L9.06607 15.5341L11.3506 16.5494L17.1839 3.42442L14.8994 2.40907ZM8.95833 16.0417V32.0834H11.4583V16.0417H8.95833ZM10.2083 33.3334H26.6583V30.8334H10.2083V33.3334ZM26.6442 33.3333C28.7219 33.3568 30.4993 31.846 30.8109 29.7917L28.3391 29.4168C28.2145 30.2386 27.5035 30.8429 26.6725 30.8335L26.6442 33.3333ZM30.8106 29.7937L32.8231 16.6687L30.3519 16.2898L28.3394 29.4148L30.8106 29.7937ZM32.8233 16.6668C33.0068 15.4582 32.6502 14.23 31.848 13.3075L29.9615 14.9479C30.2824 15.3169 30.425 15.8082 30.3517 16.2917L32.8233 16.6668ZM31.848 13.3075C31.0459 12.385 29.8791 11.8613 28.6567 11.8752L28.685 14.375C29.1739 14.3695 29.6407 14.5789 29.9615 14.9479L31.848 13.3075ZM28.6708 11.8751H20.4167V14.3751H28.6708V11.8751ZM10.2083 30.8334H5.83333V33.3334H10.2083V30.8334ZM5.83333 30.8334C4.91286 30.8334 4.16666 30.0872 4.16666 29.1667H1.66666C1.66666 31.4679 3.53214 33.3334 5.83333 33.3334V30.8334ZM4.16666 29.1667V18.9584H1.66666V29.1667H4.16666ZM4.16666 18.9584C4.16666 18.0379 4.91286 17.2917 5.83333 17.2917V14.7917C3.53214 14.7917 1.66666 16.6572 1.66666 18.9584H4.16666ZM5.83333 17.2917H10.2083V14.7917H5.83333V17.2917ZM8.95833 16.0417V32.0834H11.4583V16.0417H8.95833Z" fill="#FE724C" fill-opacity="0.666667"/>
</svg>
